<svg width="1780" height="1075" viewBox="0 0 1780 1075" fill="none" xmlns="http://www.w3.org/2000/svg">
<path d="M151.383 816.705C138.739 816.705 128.484 806.165 128.484 793.171C128.484 780.177 138.739 769.637 151.383 769.637C164.026 769.637 174.281 780.177 174.281 793.171C174.281 806.165 163.956 816.705 151.383 816.705ZM151.383 774.907C141.549 774.907 133.612 783.136 133.612 793.171C133.612 803.278 141.619 811.435 151.383 811.435C161.216 811.435 169.153 803.206 169.153 793.171C169.153 783.136 161.146 774.907 151.383 774.907Z" fill="#FCBB5B"/>
<path d="M137.39 117.035C124.746 117.035 114.491 106.496 114.491 93.5011C114.491 80.5067 124.746 69.9668 137.39 69.9668C150.033 69.9668 160.288 80.5067 160.288 93.5011C160.288 106.496 149.963 117.035 137.39 117.035ZM137.39 75.2367C127.556 75.2367 119.619 83.4665 119.619 93.5011C119.619 103.608 127.626 111.765 137.39 111.765C147.223 111.765 155.16 103.536 155.16 93.5011C155.16 83.4665 147.153 75.2367 137.39 75.2367Z" fill="#FCBB5B"/>
<path d="M1655.9 270.963C1643.26 270.963 1633 260.423 1633 247.429C1633 234.434 1643.26 223.895 1655.9 223.895C1668.54 223.895 1678.8 234.434 1678.8 247.429C1678.8 260.423 1668.47 270.963 1655.9 270.963ZM1655.9 229.164C1646.06 229.164 1638.13 237.394 1638.13 247.429C1638.13 257.536 1646.13 265.693 1655.9 265.693C1665.73 265.693 1673.67 257.463 1673.67 247.429C1673.67 237.394 1665.66 229.164 1655.9 229.164Z" fill="#FCBB5B"/>
<path d="M138.352 230.874L156.867 211.801C157.849 210.789 157.849 209.127 156.867 208.116C155.885 207.105 154.272 207.105 153.29 208.116L134.775 227.189L116.26 208.116C115.279 207.105 113.666 207.105 112.684 208.116C111.702 209.127 111.702 210.789 112.684 211.801L131.199 230.874L112.684 249.947C111.702 250.958 111.702 252.62 112.684 253.631C113.175 254.137 113.806 254.426 114.507 254.426C115.208 254.426 115.84 254.137 116.331 253.631L134.846 234.558L153.361 253.631C153.851 254.137 154.483 254.426 155.184 254.426C155.885 254.426 156.517 254.137 157.007 253.631C157.989 252.62 157.989 250.958 157.007 249.947L138.352 230.874Z" fill="#E55DB2"/>
<path d="M1756.4 386.727L1744.95 363.193L1756.4 339.658L1767.84 363.193L1756.4 386.727ZM1750.82 363.265L1756.32 374.671L1761.83 363.265L1756.32 351.858L1750.82 363.265Z" fill="#E55DB2"/>
<path d="M1597.9 797.295C1597.27 797.295 1596.57 797.006 1596.07 796.501C1595.09 795.489 1595.09 793.827 1596.07 792.816L1636.81 750.985C1637.79 749.974 1639.41 749.974 1640.39 750.985C1641.38 751.997 1641.38 753.658 1640.39 754.67L1599.66 796.501C1599.17 797.006 1598.54 797.295 1597.9 797.295Z" fill="#22E1EF"/>
<path d="M1736.07 174.282C1735.43 174.282 1734.73 173.993 1734.24 173.487C1733.25 172.475 1733.25 170.814 1734.24 169.802L1774.97 127.971C1775.95 126.96 1777.57 126.96 1778.56 127.971C1779.54 128.983 1779.54 130.645 1778.56 131.656L1737.82 173.487C1737.33 173.993 1736.7 174.282 1736.07 174.282Z" fill="#22E1EF"/>
<path d="M1667.3 517.069C1666.67 517.069 1665.96 516.78 1665.47 516.274L1624.74 474.443C1623.75 473.432 1623.75 471.77 1624.74 470.759C1625.72 469.747 1627.34 469.747 1628.33 470.759L1669.06 512.589C1670.04 513.601 1670.04 515.263 1669.06 516.274C1668.64 516.852 1667.93 517.069 1667.3 517.069Z" fill="white"/>
<path d="M43.2992 318.032C42.6661 318.032 41.9626 317.743 41.4702 317.237L0.738654 275.406C-0.246218 274.395 -0.246218 272.733 0.738654 271.721C1.72353 270.71 3.3416 270.71 4.32647 271.721L45.0579 313.552C46.0428 314.564 46.0428 316.225 45.0579 317.237C44.6358 317.815 43.9323 318.032 43.2992 318.032Z" fill="white"/>
<path d="M1730.26 888.897H1712.43V871.072C1712.43 869.662 1711.31 868.535 1709.9 868.535C1708.49 868.535 1707.36 869.662 1707.36 871.072V888.897H1689.54C1688.13 888.897 1687 890.024 1687 891.433C1687 892.843 1688.13 893.97 1689.54 893.97H1707.36V911.795C1707.36 913.204 1708.49 914.332 1709.9 914.332C1711.31 914.332 1712.43 913.204 1712.43 911.795V894.04H1730.26C1731.67 894.04 1732.8 892.913 1732.8 891.504C1732.8 890.095 1731.67 888.897 1730.26 888.897Z" fill="white"/>
<path d="M1699.16 20.3619H1681.33V2.53645C1681.33 1.12732 1680.2 0 1678.8 0C1677.39 0 1676.26 1.12732 1676.26 2.53645V20.3619H1658.43C1657.02 20.3619 1655.9 21.4891 1655.9 22.8983C1655.9 24.3074 1657.02 25.4347 1658.43 25.4347H1676.26V43.2601C1676.26 44.6692 1677.39 45.7966 1678.8 45.7966C1680.2 45.7966 1681.33 44.6692 1681.33 43.2601V25.5051H1699.16C1700.57 25.5051 1701.69 24.3779 1701.69 22.9687C1701.69 21.5596 1700.57 20.3619 1699.16 20.3619Z" fill="white"/>
<path d="M1709.53 678.989C1696.54 678.989 1686 668.449 1686 655.454C1686 642.46 1696.54 631.92 1709.53 631.92C1722.53 631.92 1733.07 642.46 1733.07 655.454C1733.07 668.449 1722.53 678.989 1709.53 678.989ZM1709.53 637.19C1699.43 637.19 1691.27 645.42 1691.27 655.454C1691.27 665.561 1699.5 673.719 1709.53 673.719C1719.64 673.719 1727.8 665.489 1727.8 655.454C1727.8 645.42 1719.64 637.19 1709.53 637.19Z" fill="white"/>
<path d="M117.036 488.496L105.587 464.962L117.036 441.428L128.485 464.962L117.036 488.496ZM111.458 464.962L116.963 476.368L122.467 464.962L116.963 453.556L111.458 464.962Z" fill="white"/>
<path d="M66.1558 662.08H48.3315V643.759C48.3315 642.311 47.2043 641.152 45.7952 641.152C44.3862 641.152 43.259 642.311 43.259 643.759V662.08H25.4347C24.0257 662.08 22.8984 663.238 22.8984 664.687C22.8984 666.135 24.0257 667.294 25.4347 667.294H43.259V685.614C43.259 687.062 44.3862 688.221 45.7952 688.221C47.2043 688.221 48.3315 687.062 48.3315 685.614V667.294H66.1558C67.5648 667.294 68.692 666.135 68.692 664.687C68.7625 663.238 67.5648 662.08 66.1558 662.08Z" fill="white"/>
<path d="M58.523 20.9275H40.6987V2.60686C40.6987 1.1586 39.5715 0 38.1624 0C36.7534 0 35.6262 1.1586 35.6262 2.60686V20.9275H17.8019C16.3929 20.9275 15.2656 22.0861 15.2656 23.5343C15.2656 24.9826 16.3929 26.1412 17.8019 26.1412H35.6262V44.4618C35.6262 45.9101 36.7534 47.0687 38.1624 47.0687C39.5715 47.0687 40.6987 45.9101 40.6987 44.4618V26.1412H58.523C59.932 26.1412 61.0592 24.9826 61.0592 23.5343C61.1297 22.0861 59.932 20.9275 58.523 20.9275Z" fill="white"/>
<path d="M549.647 1026.49C537.004 1026.49 526.749 1015.95 526.749 1002.95C526.749 989.96 537.004 979.42 549.647 979.42C562.291 979.42 572.546 989.96 572.546 1002.95C572.546 1015.95 562.22 1026.49 549.647 1026.49ZM549.647 984.69C539.814 984.69 531.877 992.92 531.877 1002.95C531.877 1013.06 539.884 1021.22 549.647 1021.22C559.481 1021.22 567.418 1012.99 567.418 1002.95C567.418 992.92 559.411 984.69 549.647 984.69Z" fill="white"/>
<path d="M33.164 989.387L21.7148 965.853L33.164 942.318L44.6131 965.853L33.164 989.387ZM27.5862 965.925L33.0906 977.331L38.595 965.925L33.0906 954.519L27.5862 965.925Z" fill="#E55DB2"/>
<path d="M225.568 957.069C224.935 957.069 224.231 956.78 223.739 956.274C222.754 955.263 222.754 953.601 223.739 952.589L264.47 910.759C265.455 909.747 267.073 909.747 268.058 910.759C269.043 911.77 269.043 913.432 268.058 914.443L227.326 956.274C226.834 956.78 226.201 957.069 225.568 957.069Z" fill="#22E1EF"/>
<path d="M311.764 1048.69H293.94V1030.37C293.94 1028.92 292.813 1027.76 291.404 1027.76C289.995 1027.76 288.867 1028.92 288.867 1030.37V1048.69H271.043C269.634 1048.69 268.507 1049.85 268.507 1051.3C268.507 1052.74 269.634 1053.9 271.043 1053.9H288.867V1072.22C288.867 1073.67 289.995 1074.83 291.404 1074.83C292.813 1074.83 293.94 1073.67 293.94 1072.22V1053.9H311.764C313.173 1053.9 314.3 1052.74 314.3 1051.3C314.371 1049.85 313.173 1048.69 311.764 1048.69Z" fill="white"/>
<path d="M1628.1 1015.45L1646.62 996.375C1647.6 995.363 1647.6 993.702 1646.62 992.69C1645.63 991.679 1644.02 991.679 1643.04 992.69L1624.52 1011.76L1606.01 992.69C1605.03 991.679 1603.41 991.679 1602.43 992.69C1601.45 993.702 1601.45 995.363 1602.43 996.375L1620.95 1015.45L1602.43 1034.52C1601.45 1035.53 1601.45 1037.19 1602.43 1038.21C1602.92 1038.71 1603.55 1039 1604.26 1039C1604.96 1039 1605.59 1038.71 1606.08 1038.21L1624.59 1019.13L1643.11 1038.21C1643.6 1038.71 1644.23 1039 1644.93 1039C1645.63 1039 1646.27 1038.71 1646.76 1038.21C1647.74 1037.19 1647.74 1035.53 1646.76 1034.52L1628.1 1015.45Z" fill="#E55DB2"/>
<path d="M1379.07 1062.11L1367.62 1038.57L1379.07 1015.04L1390.52 1038.57L1379.07 1062.11ZM1373.5 1038.65L1379 1050.05L1384.51 1038.65L1379 1027.24L1373.5 1038.65Z" fill="white"/>
<path d="M1457.97 1003.59C1457.34 1003.59 1456.63 1003.3 1456.14 1002.8C1455.16 1001.78 1455.16 1000.12 1456.14 999.111L1496.87 957.28C1497.86 956.269 1499.47 956.269 1500.46 957.28C1501.44 958.292 1501.44 959.953 1500.46 960.965L1459.73 1002.8C1459.24 1003.3 1458.6 1003.59 1457.97 1003.59Z" fill="#22E1EF"/>
<path d="M1207.57 1028.07C1206.93 1028.07 1206.23 1027.78 1205.74 1027.27C1204.75 1026.26 1204.75 1024.6 1205.74 1023.59L1246.47 981.759C1247.45 980.747 1249.07 980.747 1250.06 981.759C1251.04 982.77 1251.04 984.432 1250.06 985.443L1209.33 1027.27C1208.83 1027.85 1208.2 1028.07 1207.57 1028.07Z" fill="white"/>
</svg>
