<svg width="154" height="32" viewBox="0 0 154 32" fill="none" xmlns="http://www.w3.org/2000/svg">
<path d="M30.9055 31.1595V27.2456L35.0445 4.10247H31.0711V0.0183716H38.8525V3.8472L34.879 27.0754H38.9353V31.1595H30.9055Z" fill="white"/>
<path d="M42.1655 31.1595V27.3307H43.6556V3.8472H42.1655V0.0183716H48.9536V3.8472H47.4635V27.3307H48.9536V31.1595H42.1655Z" fill="white"/>
<path d="M56.4024 18.3117V31.1595H52.5945V0.0183716H57.313C58.9686 0.0183716 60.0447 0.358717 60.707 0.954312C61.2864 1.54991 61.6176 2.48584 61.6176 3.8472V13.2066C61.6176 14.0574 61.452 14.7381 61.2037 15.2486C60.9553 15.7591 60.5414 16.0995 60.0447 16.3547C60.6242 16.5249 61.0381 16.8652 61.3692 17.2906C61.6176 17.7161 61.7831 18.3967 61.7831 19.2476V29.2026C61.7831 29.628 61.8659 30.0534 61.9487 30.3086C62.0315 30.649 62.1971 30.9042 62.4454 31.1595H58.3891C58.2236 31.0744 58.1408 30.8192 58.058 30.4788C57.9752 30.1385 57.9752 29.713 57.9752 29.2876V19.5879C57.9752 19.1625 57.8925 18.8222 57.7269 18.652C57.5613 18.4818 57.313 18.3117 56.9818 18.3117H56.4024ZM56.4024 3.50686V14.4828H56.8991C57.2302 14.4828 57.5613 14.3978 57.6441 14.3127C57.8097 14.1425 57.8924 13.9723 57.8924 13.5469V4.35771C57.8924 4.01737 57.8097 3.76213 57.6441 3.67704C57.4785 3.50687 57.2302 3.50686 56.8163 3.50686H56.4024Z" fill="white"/>
<path d="M66.9235 30.1699C66.2012 29.5031 65.7998 28.3361 65.7998 26.6689V4.49562C65.7998 2.91181 66.2011 1.82816 67.0038 1.16129C67.8065 0.494428 68.9302 0.161011 70.375 0.161011C71.7395 0.161011 72.8632 0.494428 73.5856 1.16129C74.308 1.82816 74.7094 2.99517 74.7094 4.49562V12.7481H71.0171V4.91241C71.0171 4.41226 70.9369 4.07884 70.8566 3.91213C70.7763 3.74541 70.6158 3.66204 70.2947 3.66204C70.0539 3.66204 69.8934 3.74541 69.8131 3.91213C69.7328 4.07884 69.6526 4.41226 69.6526 4.91241V26.1687C69.6526 26.6689 69.7328 27.0023 69.8131 27.169C69.8934 27.3358 70.0539 27.4191 70.375 27.4191C70.6158 27.4191 70.8566 27.3358 70.9368 27.169C71.0171 27.0023 71.0974 26.6689 71.0974 26.1687V17.5829H74.8699V26.6689C74.8699 28.3361 74.4686 29.5031 73.7462 30.1699C73.0238 30.8368 71.9001 31.1702 70.4553 31.1702C68.85 31.2536 67.7262 30.9202 66.9235 30.1699Z" fill="white"/>
<path d="M79.8965 30.0986C79.1009 29.4316 78.6235 28.2643 78.6235 26.5968V4.41889C78.6235 2.91813 79.0213 1.83425 79.817 1.08387C80.6126 0.333492 81.7264 0 83.1586 0C84.5907 0 85.7046 0.333492 86.5002 1.08387C87.2958 1.83425 87.6936 2.91813 87.6936 4.41889V26.6802C87.6936 28.3477 87.2958 29.5149 86.5002 30.182C85.7046 30.849 84.5907 31.1824 83.1586 31.1824C81.8856 31.1824 80.7717 30.849 79.8965 30.0986ZM83.7951 27.097C83.8747 26.9303 83.9542 26.5968 83.9542 26.1799V4.83577C83.9542 4.41889 83.8747 4.08541 83.7951 3.91866C83.7155 3.75191 83.4768 3.66852 83.2382 3.66852C82.9995 3.66852 82.7608 3.75191 82.6812 3.91866C82.6016 4.08541 82.5221 4.41889 82.5221 4.83577V26.1799C82.5221 26.5968 82.6016 26.9303 82.6812 27.097C82.7608 27.2638 82.9995 27.3472 83.2382 27.3472C83.4768 27.3472 83.7155 27.2638 83.7951 27.097Z" fill="white"/>
<path d="M95.4746 31.1595H92.0806V0.0183716H95.0606L97.8752 15.5039L98.5374 19.0774L98.0408 13.632V0.103462H101.518V31.1595H98.6202L95.7229 15.5889L95.2262 12.9513L95.6401 17.4608V31.1595H95.4746Z" fill="white"/>
<path d="M118.152 4.01738V31.1595H114.262V4.01738H112.027V0.0183716H120.47V4.01738H118.152Z" fill="white"/>
<path d="M127.679 18.3117V31.1595H123.871V0.0183716H128.589C130.245 0.0183716 131.321 0.358717 131.983 0.954312C132.563 1.54991 132.894 2.48584 132.894 3.8472V13.2066C132.894 14.0574 132.728 14.7381 132.48 15.2486C132.231 15.7591 131.818 16.0995 131.321 16.3547C131.9 16.5249 132.314 16.8652 132.645 17.2906C132.894 17.7161 133.059 18.3967 133.059 19.2476V29.2026C133.059 29.628 133.142 30.0534 133.225 30.3086C133.308 30.649 133.473 30.9042 133.722 31.1595H129.665C129.5 31.0744 129.417 30.8192 129.334 30.4788C129.251 30.1385 129.251 29.713 129.251 29.2876V19.5879C129.251 19.1625 129.169 18.8222 129.003 18.652C128.837 18.4818 128.589 18.3117 128.258 18.3117H127.679ZM127.679 3.50686V14.4828H128.175C128.506 14.4828 128.837 14.3978 128.92 14.3127C129.086 14.1425 129.169 13.9723 129.169 13.5469V4.35771C129.169 4.01737 129.086 3.76213 128.92 3.67704C128.755 3.50687 128.506 3.50686 128.092 3.50686H127.679Z" fill="white"/>
<path d="M143.567 31.1595H136.862V0.0183716H143.484V4.01738H140.753V13.4618H143.402V17.4608H140.753V27.1605H143.65V31.1595H143.567Z" fill="white"/>
<path d="M153.999 31.1595H147.294V0.0183716H153.917V4.01738H151.102V13.4618H153.751V17.4608H151.102V27.1605H153.999V31.1595Z" fill="white"/>
<path d="M8.62365 15.9866L4.77368 8.86377L8.62365 1.74091L12.4736 8.86377L8.62365 15.9866Z" fill="#22E1EF"/>
<path d="M16.3615 15.9866L12.4727 8.86377L16.3615 1.74091L20.1726 8.86377L16.3615 15.9866Z" fill="#E55DB2"/>
<path d="M12.4351 15.9868L16.324 23.1888L12.4351 30.3908L8.62402 23.1888L12.4351 15.9868Z" fill="#FCBB5B"/>
<path d="M20.6465 24.0112L24.9478 16.0343L16.3451 0L12.513 7.17112L8.6027 0L0 16.0343L4.30135 24.0112H7.27319L3.44108 31.1823H21.5067L17.6746 24.0112H20.6465ZM23.1491 16.0343L20.1772 21.5134L17.2054 16.0343L20.1772 10.5553L23.1491 16.0343ZM19.2388 8.86319L16.2669 14.3422L15.3284 12.6502L13.3733 8.86319L16.3451 3.38413L19.2388 8.86319ZM11.5745 8.86319L8.6027 14.3422L7.66422 12.6502L5.63086 8.86319L8.6027 3.30355L11.5745 8.86319ZM4.77059 21.5134L1.79875 16.0343L4.77059 10.4747L7.74243 15.9537L4.77059 21.5134ZM12.4348 10.4747L18.8477 22.3191H16.8144L12.513 14.2617L8.21167 22.3191H6.10009L12.4348 10.4747ZM6.10009 29.5708L8.6027 24.8975L11.1053 29.5708H6.10009ZM9.46297 23.2054L12.4348 17.7264L15.4066 23.2054L12.4348 28.6845L9.46297 23.2054ZM18.8477 29.5708H13.7643L16.2669 24.8975L18.8477 29.5708Z" fill="white"/>
</svg>
